<svg width="564" height="565" viewBox="0 0 564 565" fill="none" xmlns="http://www.w3.org/2000/svg">
<path d="M472.499 302.467H422.167C419.054 302.467 416.527 299.94 416.527 296.827V271.695C416.527 268.581 419.054 266.055 422.167 266.055H472.499C475.612 266.055 478.139 268.581 478.139 271.695V296.827C478.139 299.94 475.612 302.467 472.499 302.467Z" fill="#60A8FF"/>
<path d="M447.333 316.702L455.308 297.797H439.358L447.333 316.702Z" fill="#60A8FF"/>
<path d="M447.141 278.011H461.557V280.121L468.618 276.049L461.557 271.977V274.086H447.141V278.011Z" fill="#223A7A"/>
<path d="M468.618 286.29H454.214V284.192L447.141 288.264L454.214 292.337V290.227H468.618V286.29Z" fill="white"/>
<path d="M438.298 290.002L437.61 290.25C437.61 290.25 435.466 287.814 434.361 285.152C433.255 282.49 433.21 279.252 433.21 279.252L433.707 279.038L430.661 271.751C430.12 272.18 429.601 272.721 429.183 273.432C427.458 276.342 427.627 280.82 429.364 285.185C431.101 289.551 432.951 293.454 436.335 295.901C438.331 297.345 440.046 297.605 441.377 297.39L438.298 290.002Z" fill="#223A7A"/>
<path d="M440.486 289.145L439.539 289.495L442.652 296.962C443.002 296.849 443.317 296.703 443.599 296.556C444.4 296.116 444.761 295.146 444.423 294.289L442.799 290.183C442.438 289.269 441.411 288.807 440.486 289.145Z" fill="#223A7A"/>
<path d="M433.052 270.465C432.669 270.6 432.251 270.792 431.834 271.04L434.947 278.485L435.996 278.045C436.91 277.662 437.339 276.635 436.989 275.71L435.353 271.514C434.992 270.612 433.977 270.138 433.052 270.465Z" fill="#223A7A"/>
<path d="M150.748 421.876V337.863C150.748 337.863 149.812 315.224 161.712 308.693C173.613 302.162 223.786 305.659 223.786 305.659V421.876H150.748Z" fill="#1C83FF"/>
<path d="M239.476 227.004C239.476 227.004 236.442 252.44 235.28 254.538C234.118 256.636 234.118 256.636 234.118 256.636L228.287 260.607C228.287 260.607 239.488 276.478 253.261 279.039C267.033 281.61 265.86 273.432 265.86 273.432L263.762 268.999L266.56 244.725C266.548 244.747 241.574 233.309 239.476 227.004Z" fill="#FF9D8C"/>
<path d="M221.034 262.717L230.137 258.746C230.137 258.746 235.968 268.312 249.504 273.918C263.04 279.524 263.277 276.253 263.977 273.918C264.676 271.583 263.74 269.022 263.74 269.022L264.744 260.855L270.158 262.66L288.951 414.658L240.638 416.993L221.034 262.717Z" fill="white"/>
<path d="M265.612 261.002C265.612 261.002 268.884 268.548 271.918 286.28C274.952 304.013 277.75 333.893 278.449 354.423C279.148 374.952 279.611 421.866 279.611 421.866C279.611 421.866 339.823 421.866 340.523 421.866C341.222 421.866 345.418 398.765 345.418 398.765C345.418 398.765 318.809 375.968 317.41 372.234C316.474 369.741 316.948 323.617 312.977 302.377C309.006 281.137 303.874 276.862 293.136 271.571C282.059 266.112 265.612 261.002 265.612 261.002Z" fill="#223A7A"/>
<path d="M297.354 395.144C297.038 395.144 296.79 394.895 296.79 394.58C296.79 392.91 296.497 369.2 296.204 346.279C295.922 323.346 295.617 299.636 295.617 297.966C295.617 297.651 295.865 297.402 296.181 297.402C296.497 297.402 296.745 297.651 296.745 297.966C296.745 299.636 297.038 323.346 297.332 346.267C297.614 369.2 297.918 392.91 297.918 394.58C297.918 394.884 297.659 395.144 297.354 395.144Z" fill="#8593B6"/>
<path d="M175.993 389.436L175.53 421.877H246.481C246.481 421.877 249.516 394.343 248.354 391.771C247.17 389.21 175.993 389.436 175.993 389.436Z" fill="#223A7A"/>
<path d="M254.952 253.85C257.84 256.185 261.799 258.047 264.879 259.186L266.548 244.747C266.548 244.747 247.79 236.152 241.428 229.768C242.759 237.021 246.03 246.642 254.952 253.85Z" fill="#8E9BBB"/>
<path d="M288.488 179.627C288.488 179.627 293.384 188.031 294.32 198.296C295.256 208.561 294.32 234.933 285.916 246.134C277.513 257.335 260.006 254.064 252.076 247.296C244.789 241.081 237.604 234.223 235.743 220.687C233.87 207.151 239.713 181.477 256.284 176.108C272.843 170.761 288.488 179.627 288.488 179.627Z" fill="#FF9D8C"/>
<path d="M309.537 407.213C309.537 407.213 308.713 407.213 307.461 407.179C307.168 407.168 306.841 407.179 306.502 407.168C305.295 407.134 303.829 407.101 302.351 407.055C302.024 407.044 301.686 407.033 301.359 407.022C299.892 406.988 298.64 407.168 297.467 407.101H297.433C297.185 407.089 296.824 407.123 296.531 407.134C296.384 407.146 296.249 407.157 296.158 407.146C295.482 407.022 295.346 406.864 294.613 406.537C293.666 406.108 280.84 403.243 270.406 403.31C259.983 403.356 250.632 404.066 249.11 402.792C247.575 401.494 246.651 388.398 255.55 387.541L266.492 391.692C266.492 391.692 291.477 388.725 300.637 395.482C309.819 402.239 309.537 407.213 309.537 407.213Z" fill="#FF9D8C"/>
<path d="M297.433 407.1C297.185 407.089 296.824 407.123 296.531 407.134C296.305 406.773 295.831 406.119 295.572 405.848C292.752 402.972 285.939 401.111 283.469 400.513C283.243 400.456 283.096 400.231 283.153 400.005C283.198 399.78 283.435 399.644 283.672 399.689C287.27 400.558 294.906 402.78 297.072 406.423C297.14 406.525 297.32 406.875 297.433 407.1Z" fill="#223A7A"/>
<path d="M302.351 407.044C302.024 407.032 301.686 407.032 301.359 407.01C298.279 401.392 293.237 399.779 287.022 397.783L286.65 397.659C286.435 397.591 286.311 397.343 286.379 397.117C286.447 396.903 286.683 396.779 286.92 396.847L287.281 396.971C293.858 399.091 299.159 400.783 302.351 407.044Z" fill="#223A7A"/>
<path d="M307.461 407.168C307.168 407.157 306.841 407.168 306.502 407.157C304.63 403.232 298.449 396.655 290.282 395.133C290.045 395.087 289.898 394.873 289.932 394.636C289.977 394.411 290.203 394.264 290.428 394.298C298.843 395.888 305.645 402.758 307.461 407.168Z" fill="#223A7A"/>
<path d="M241.337 209.159C241.337 209.159 246.47 206.711 250.091 199.819C253.712 192.938 253.238 186.745 253.238 186.745C253.238 186.745 259.769 185.696 269.571 188.618C279.374 191.539 291.037 195.499 300.839 189.904C310.642 184.298 310.642 175.319 305.859 171.585C300.501 167.4 289.875 169.95 289.875 169.95C289.875 169.95 293.959 165.979 291.748 163.644C289.526 161.309 281.483 164.343 281.483 164.343C281.483 164.343 271.681 156.526 253.125 157.463C234.569 158.399 225.703 171.348 224.654 185.821C223.605 200.293 228.851 214.765 228.851 214.765L241.337 209.159Z" fill="#223A7A"/>
<path d="M278.979 212.667C277.93 215.261 277.953 218.273 277.693 221.014C277.49 223.157 277.095 225.65 279.058 227.094C279.994 227.782 284.427 229.643 282.149 231.154C281.28 231.73 279.825 231.572 278.832 231.527C278.156 231.493 277.468 231.47 276.78 231.414C276.046 231.358 275.336 231.143 274.602 231.132C274.174 231.132 274.038 231.696 274.388 231.922C275.561 232.655 277.298 232.892 278.663 232.937C280.039 232.993 280.964 232.925 282.205 232.316C282.961 231.944 283.705 231.403 283.818 230.5C283.954 229.485 283.187 228.571 282.42 227.996C281.54 227.342 280.457 227.037 279.566 226.394C278.325 225.514 278.426 224.014 278.517 222.638C278.731 219.322 279.487 216.062 279.78 212.757C279.836 212.272 279.137 212.272 278.979 212.667Z" fill="#8E9BBB"/>
<path d="M288.522 220.416C288.172 222.379 286.74 223.778 285.33 223.53C283.909 223.281 283.051 221.477 283.39 219.514C283.739 217.551 285.172 216.152 286.582 216.401C288.003 216.66 288.872 218.454 288.522 220.416Z" fill="#223A7A"/>
<path d="M270.665 218.86C270.35 220.98 268.849 222.514 267.327 222.289C265.792 222.063 264.811 220.157 265.127 218.036C265.443 215.915 266.943 214.381 268.466 214.607C269.989 214.833 270.981 216.739 270.665 218.86Z" fill="#223A7A"/>
<path d="M284.36 212.317C285.454 212.497 286.548 212.317 287.653 212.396C287.913 212.418 288.184 212.452 288.443 212.475C288.635 212.497 288.093 212.418 288.353 212.464C288.409 212.475 288.466 212.486 288.522 212.486C288.657 212.509 288.793 212.543 288.928 212.576C289.165 212.633 289.391 212.723 289.627 212.768C289.842 212.813 290.079 212.87 290.293 212.858C290.417 212.847 290.53 212.825 290.654 212.813C290.575 212.825 290.507 212.836 290.428 212.858C290.428 212.881 290.834 212.825 290.88 212.813C291.5 212.667 291.895 211.945 291.714 211.336C291.669 211.155 291.59 211.008 291.477 210.862C291.432 210.805 291.387 210.738 291.331 210.681C291.376 210.726 291.421 210.783 291.466 210.828C291.421 210.76 291.376 210.704 291.319 210.636C291.263 210.535 291.173 210.444 291.071 210.388C290.981 210.32 290.902 210.253 290.812 210.185C290.519 209.982 290.146 209.869 289.797 209.779C289.142 209.61 288.466 209.531 287.789 209.52C287.123 209.52 286.458 209.587 285.804 209.677C285.217 209.756 284.574 209.959 284.1 210.309C283.739 210.58 283.514 210.93 283.57 211.403C283.627 211.787 283.942 212.238 284.36 212.317Z" fill="#223A7A"/>
<path d="M271.918 209.193C271.771 209.103 271.613 209.024 271.467 208.956C271.331 208.9 270.97 208.708 271.241 208.854C271.14 208.798 271.038 208.742 270.936 208.697C270.485 208.471 270.012 208.313 269.526 208.189C268.466 207.918 267.338 207.851 266.244 207.963C265.082 208.087 264.011 208.369 263.007 208.979C262.86 209.069 262.713 209.148 262.601 209.272C262.522 209.373 262.443 209.475 262.364 209.576C262.386 209.543 262.409 209.509 262.431 209.475C262.115 209.689 261.935 210.05 261.946 210.422C261.946 210.783 262.138 211.088 262.454 211.257C262.837 211.471 263.198 211.37 263.593 211.268C263.401 211.268 263.198 211.268 263.007 211.268C263.334 211.314 263.559 211.336 263.886 211.257C263.898 211.257 264.202 211.178 263.999 211.223C263.807 211.268 264.315 211.189 264.371 211.178C264.439 211.167 264.789 211.133 264.417 211.167C264.484 211.156 264.552 211.156 264.62 211.144C264.8 211.122 264.969 211.099 265.15 211.088C265.917 211.032 266.684 210.998 267.462 210.964C268.173 210.941 268.906 210.93 269.628 210.964C269.933 210.975 270.237 210.986 270.542 210.998C270.711 210.998 270.643 211.031 270.519 210.998C270.587 211.02 270.643 211.032 270.711 211.043C270.835 211.077 270.959 211.122 271.083 211.167C271.579 211.359 272.177 210.998 272.358 210.535C272.561 210.05 272.392 209.475 271.918 209.193Z" fill="#223A7A"/>
<path d="M277.456 241.634C278.528 239.479 280.479 237.9 282.724 236.885C280.772 236.682 271.534 235.836 269.21 237.156C266.605 238.633 269.695 244.589 275.087 244.882C275.651 244.916 276.17 244.871 276.666 244.792C276.712 243.709 276.96 242.638 277.456 241.634Z" fill="#223A7A"/>
<path d="M234.807 229.113C234.807 229.113 235.743 232.734 241.112 236.93C246.481 241.126 254.265 244.206 254.265 244.206L254.885 241.487C254.885 241.487 246.831 237.99 243.097 234.133C239.364 230.286 238.901 228.177 238.901 228.177L234.807 229.113Z" fill="#DEE1EB"/>
<path d="M255.81 239.469C260.13 239.266 262.544 242.683 262.837 244.894C263.142 247.105 261.066 249.587 256.204 247.41C250.181 244.691 251.489 239.66 255.81 239.469Z" fill="#223A7A"/>
<path d="M238.191 202.391C238.191 202.391 240.052 188.979 249.042 179.865C266.199 162.482 280.784 163.531 280.784 163.531C280.784 163.531 280.671 161.083 275.178 159.211C270.023 157.463 267.71 158.399 267.71 158.399C267.71 158.399 253.588 159.561 241.687 172.747C229.787 185.933 228.501 202.741 228.501 202.741L238.191 202.391Z" fill="#DEE1EB"/>
<path d="M236.905 200.755C225.67 198.849 219.398 207.636 218.936 216.513C218.473 225.379 224.914 232.125 233.521 231.448C252.888 229.925 250.677 203.09 236.905 200.755Z" fill="white"/>
<path d="M231.31 222.819C228.343 222.819 225.839 221.33 224.406 218.702C222.872 215.893 222.996 212.43 224.733 209.881C224.869 209.689 225.128 209.644 225.32 209.768C225.512 209.903 225.568 210.163 225.433 210.355C223.876 212.644 223.763 215.758 225.151 218.296C226.459 220.698 228.783 222.063 231.535 221.973C234.107 221.905 236.284 220.732 237.66 218.668C239.24 216.31 239.601 213.062 238.585 210.377C237.57 207.715 234.807 205.91 232.291 206.237C232.065 206.271 231.851 206.102 231.817 205.876C231.783 205.64 231.953 205.437 232.178 205.403C235.122 205.008 238.213 207.027 239.375 210.084C240.492 213.017 240.086 216.57 238.36 219.142C236.814 221.443 234.4 222.751 231.558 222.819C231.468 222.819 231.389 222.819 231.31 222.819Z" fill="#818FB3"/>
<path d="M223.132 259.445C223.132 259.445 189.055 267.849 177.154 281.385C165.254 294.921 159.648 361.665 159.422 374.039C159.185 386.413 167.826 391.545 172.958 395.042C178.091 398.539 200.73 404.845 218.936 405.781C237.141 406.717 254.411 405.781 254.411 405.781C254.411 405.781 254.355 401.81 257.152 395.978C259.747 390.564 263.04 389.447 263.04 389.447L247.406 383.841C247.406 383.841 244.665 334.784 240.401 311.029C235.506 283.72 223.132 259.445 223.132 259.445Z" fill="#223A7A"/>
<path d="M279.611 376.002C279.532 376.002 279.453 375.99 279.385 375.956C279.103 375.832 278.968 375.494 279.103 375.212C282.295 368.004 285.6 353.87 287.461 343.944L287.619 343.143C288.183 340.221 288.883 336.601 287.484 334.085C286.773 332.81 285.16 330.036 283.604 327.373C281.991 324.61 280.479 321.993 280.05 321.215C279.227 319.692 281.821 315.62 285.566 310.036C286.582 308.525 287.45 307.227 287.958 306.348C289.289 304.035 288.409 301.926 287.371 299.467L287.021 298.621C286.085 296.331 285.025 294.041 283.998 291.819C283.581 290.917 283.164 290.003 282.746 289.089C282.194 287.882 281.652 286.653 281.088 285.412C277.794 278.057 274.377 270.455 270.011 263.111C269.853 262.841 269.944 262.502 270.203 262.333C270.474 262.175 270.812 262.265 270.981 262.525C275.381 269.924 278.81 277.561 282.115 284.938C282.667 286.179 283.22 287.408 283.762 288.604C284.179 289.518 284.596 290.42 285.014 291.323C286.04 293.556 287.112 295.857 288.048 298.17L288.398 299.004C289.447 301.497 290.53 304.092 288.917 306.878C288.386 307.791 287.507 309.111 286.48 310.634C284.529 313.544 280.468 319.602 281.021 320.651C281.438 321.418 282.949 324.023 284.551 326.776C286.108 329.449 287.721 332.224 288.443 333.51C290.045 336.375 289.3 340.233 288.702 343.323L288.544 344.124C287.867 347.734 284.269 366.233 280.107 375.641C280.039 375.877 279.825 376.002 279.611 376.002Z" fill="#8593B6"/>
<path d="M246.357 377.986C246.21 377.986 246.064 377.93 245.962 377.817C243.312 375.144 230.52 353.001 229.572 348.839C229.054 346.56 230.362 340.773 231.625 335.179C232.607 330.847 233.622 326.369 233.329 325.151C232.9 323.335 229.629 320.661 226.459 318.078C222.635 314.953 218.687 311.727 217.92 308.817C217.052 305.512 217.796 284.825 218.281 271.142C218.462 266.224 218.597 262.332 218.597 260.945C218.597 260.629 218.845 260.381 219.161 260.381C219.477 260.381 219.725 260.629 219.725 260.945C219.725 262.355 219.59 266.246 219.409 271.176C218.947 283.967 218.18 305.377 219.003 308.524C219.68 311.073 223.65 314.322 227.159 317.187C230.622 320.018 233.881 322.68 234.4 324.869C234.75 326.335 233.802 330.542 232.697 335.404C231.513 340.616 230.182 346.526 230.644 348.557C231.58 352.64 244.135 374.365 246.741 376.994C246.955 377.219 246.955 377.569 246.741 377.794C246.65 377.93 246.504 377.986 246.357 377.986Z" fill="#8593B6"/>
<path d="M200.504 368.297C200.481 368.297 200.448 368.297 200.425 368.297C200.121 368.252 199.906 367.97 199.94 367.654C200.357 364.721 206.832 306.291 207.125 301.813C207.148 301.497 207.419 301.26 207.723 301.283C208.039 301.305 208.265 301.576 208.253 301.881C207.96 306.359 201.474 364.868 201.057 367.801C201.023 368.094 200.775 368.297 200.504 368.297Z" fill="#8593B6"/>
<path d="M246.944 384.168C246.876 384.168 246.797 384.157 246.73 384.123C245.297 383.536 238.958 381.404 230.938 378.697C214.739 373.238 192.563 365.759 188.344 363.559C188.062 363.413 187.961 363.074 188.107 362.804C188.254 362.522 188.592 362.42 188.863 362.567C193.003 364.721 216.048 372.493 231.299 377.637C239.341 380.355 245.692 382.487 247.158 383.085C247.451 383.198 247.587 383.536 247.474 383.818C247.373 384.033 247.158 384.168 246.944 384.168Z" fill="#8593B6"/>
<path d="M239.149 407.439C224.891 407.439 197.266 404.867 176.274 397.445C175.981 397.343 175.823 397.016 175.936 396.723C176.038 396.429 176.365 396.271 176.658 396.384C203.177 405.769 240.277 407.371 247.18 405.814C247.485 405.747 247.79 405.938 247.857 406.243C247.925 406.548 247.733 406.852 247.429 406.92C245.917 407.247 243.029 407.439 239.149 407.439Z" fill="#8593B6"/>
<path d="M76.0069 267.318C80.4286 271.21 86.0348 273.703 89.9151 278.204C91.4379 279.975 92.8141 281.858 94.2353 283.719C95.2731 285.073 98.0254 287.318 98.4653 289.01C98.6571 289.754 98.6233 288.739 98.4202 287.995C98.4089 287.961 98.3977 287.938 98.3864 287.904C98.0029 284.464 97.7209 281.012 97.5968 277.549C97.4727 274.098 97.687 270.635 97.4727 267.194C97.1681 262.333 95.6453 257.629 91.6748 254.583C89.7346 253.094 87.2417 252.192 85.4482 250.534C83.7562 248.966 84.433 247.172 85.4257 245.424C86.3619 243.788 87.4899 242.175 87.8509 240.291C88.2682 238.148 87.4561 235.937 86.3732 234.121C84.0608 230.241 78.9397 225.909 74.078 226.496C70.0285 226.981 69.566 231.651 69.6337 234.9C69.6901 238.058 70.0059 241.216 70.0285 244.375C70.0623 247.623 69.5096 250.816 69.4645 254.053C69.4193 259.558 71.9573 263.754 76.0069 267.318Z" fill="#6BAEFF"/>
<path d="M117.122 317.83C118.352 314.886 119.773 312.145 121.51 309.472C123.89 305.806 126.541 302.23 128.143 298.124C129.779 293.928 129.542 289.45 129.7 285.04C129.812 281.791 130.783 278.565 130.523 275.305C130.399 273.748 129.497 271.222 127.477 271.481C125.91 271.684 124.973 273.624 124.375 274.876C123.326 277.042 122.593 279.354 121.815 281.633C121.51 282.524 121.217 283.426 120.834 284.284C120.608 284.78 119.897 285.998 119.221 285.84C118.07 285.558 119.119 280.877 119.288 280.043C120.145 275.88 121.431 272.011 121.612 267.725C121.871 261.509 121.386 254.11 115.306 250.715C113.716 249.823 111.708 249.293 110.197 250.624C108.708 251.933 108.29 254.2 108.065 256.073C107.388 261.814 108.741 267.24 110.58 272.643C112.103 277.098 113.908 281.701 114.043 286.472C114.167 291.063 111.787 295.124 110.659 299.467C108.877 306.37 109.238 310.036 109.238 312.269C109.226 315.067 109.328 317.842 109.531 320.639C109.723 323.211 109.937 325.772 110.253 328.332C110.321 328.851 110.377 329.393 110.445 329.934C109.452 327.554 109.114 324.835 108.29 322.444C106.835 318.203 105.154 314.04 103.756 309.777C102.605 306.257 101.511 302.704 99.9994 299.309C98.5781 296.128 96.8523 292.766 94.1902 290.431C92.5772 289.021 90.637 288.198 88.4825 288.209C87.1064 288.22 85.8656 288.694 84.5571 289.044C82.944 289.473 81.6694 289.326 80.3384 288.299C75.9843 284.949 74.6533 278.948 71.4385 274.707C69.0358 271.549 63.3281 266.157 59.132 269.609C56.9098 271.436 56.2894 274.966 56.4135 277.685C56.5601 281.08 58.0491 284.194 59.8088 287.036C61.6925 290.059 64.1177 292.766 65.8436 295.868C66.87 297.707 67.028 299.467 66.8588 301.531C66.7008 303.482 66.5316 305.366 67.1972 307.25C69.1937 312.901 75.4316 312.112 80.282 312.258C83.6772 312.36 87.3094 312.867 90.5355 313.95C94.2579 315.202 96.6831 317.627 98.0141 321.305C98.9729 323.967 99.4918 327.001 101.308 329.257C102.165 330.317 103.293 331.107 104.534 331.66C106.429 332.494 112.193 332.855 112.227 332.337C112.374 330.577 113.208 328.716 113.727 327.046C114.697 323.922 115.848 320.865 117.122 317.83Z" fill="#6BAEFF"/>
<path d="M143.89 316.77C143.394 313.544 143.484 309.979 141.95 307.013C141.837 306.798 141.555 306.742 141.352 306.855C140.258 307.464 140.213 309.235 140.122 310.318C139.976 312.122 140.089 313.927 139.863 315.721C139.479 318.879 138.746 322.128 137.607 325.094C136.321 328.456 133.986 330.362 130.591 331.411C128.414 332.088 126.271 332.675 124.443 334.118C122.808 335.416 121.68 337.198 120.845 339.082C118.578 344.169 117.495 349.843 116.446 355.28C115.735 358.934 115.16 362.612 114.269 366.233C113.378 369.853 112.43 373.452 111.922 377.152C111.832 377.343 111.742 377.524 111.663 377.716C111.426 378.268 112.295 378.562 112.588 378.11C116.096 372.719 120.36 367.868 126.192 364.902C128.82 363.559 132.317 363.277 134.516 361.168C136.186 359.566 136.411 357.118 136.163 354.93C135.836 352.065 134.46 349.707 133.027 347.26C132.238 345.917 131.313 344.485 131.629 342.849C131.933 341.315 133.208 340.176 134.471 339.386C136.896 337.886 139.728 337.209 141.702 335.043C143.54 333.036 144.567 330.52 144.77 327.813C145.063 324.215 144.443 320.334 143.89 316.77Z" fill="#6BAEFF"/>
<path d="M96.0965 335.393C93.0058 331.412 89.2721 327.971 85.076 325.185C82.8313 323.696 77.5522 320.763 76.4806 325.151C75.8602 327.723 78.3757 330.25 80.0338 331.863C82.5267 334.288 85.4031 336.375 87.5012 339.172C84.8955 340.007 82.177 340.165 79.921 341.958C77.2477 344.09 76.0407 348.196 78.7028 350.813C80 352.088 81.7145 352.866 83.3163 353.644C85.4144 354.66 87.5463 355.573 89.6895 356.476C94.3256 358.416 99.0181 360.379 102.966 363.548C106.993 366.774 110.783 372.245 111.099 377.513C111.133 378.021 110.941 377.558 111.234 377.332C111.404 377.479 111.945 377.22 111.945 376.926C111.866 369.109 110.456 361.653 107.264 354.49C104.308 347.835 100.563 341.146 96.0965 335.393Z" fill="#6BAEFF"/>
<path d="M85.4145 262.581C87.1178 266.123 88.9 269.586 90.7951 273.038C92.6224 276.365 94.4385 279.659 95.8034 283.212C97.4841 287.578 99.2438 291.875 101.015 296.207C102.865 300.708 104.512 305.287 105.831 309.969C108.414 319.105 110.332 328.502 111.28 337.954C111.765 342.759 111.979 347.587 111.844 352.415C111.742 356.183 111.313 359.916 110.964 363.673C110.591 367.575 110.332 371.535 110.659 375.449C110.93 378.72 111.449 382.623 113.998 384.958C114.494 385.42 115.205 384.845 114.912 384.259C111.889 378.066 112.058 371.309 112.633 364.598C112.949 360.886 113.389 357.198 113.524 353.475C113.682 348.738 113.502 343.989 113.051 339.274C112.171 330.002 110.321 320.842 107.929 311.852C106.7 307.239 105.177 302.715 103.429 298.282C101.669 293.838 99.6386 289.507 97.9353 285.04C94.8559 276.952 90.1634 269.789 86.0011 262.254C85.798 261.837 85.234 262.186 85.4145 262.581Z" fill="#43588E"/>
<path d="M111.437 328.682C111.922 322.794 112.452 317.12 114.426 311.514C115.351 308.897 116.468 306.347 117.37 303.719C118.104 301.542 119.209 298.564 118.645 296.252C118.577 295.992 118.205 296.004 118.137 296.252C117.754 297.572 117.799 299.015 117.528 300.369C117.258 301.689 116.908 302.975 116.502 304.261C115.633 306.979 114.494 309.585 113.513 312.269C111.606 317.447 110.625 323.177 111.042 328.682C111.054 328.941 111.415 328.941 111.437 328.682Z" fill="#43588E"/>
<path d="M77.3154 294.853C79.6504 300.493 86.6778 300.82 91.7989 302.083C95.4536 302.986 98.1496 305.422 100.09 308.592C102.21 312.055 103.643 316.116 104.827 319.985C104.839 320.03 104.906 320.007 104.895 319.962C103.462 313.194 101.409 305.05 94.4385 301.903C88.8436 299.376 81.4777 300.651 77.9133 294.605C77.7215 294.311 77.1801 294.503 77.3154 294.853Z" fill="#43588E"/>
<path d="M107.737 327.791C108.019 328.163 108.268 328.558 108.561 328.93C108.708 329.11 108.843 329.279 109.023 329.426C109.204 329.573 109.418 329.765 109.678 329.753C109.779 329.753 109.858 329.629 109.802 329.539C109.689 329.347 109.475 329.234 109.317 329.099C109.147 328.952 108.978 328.806 108.82 328.648C108.493 328.343 108.2 328.005 107.873 327.689C107.805 327.633 107.681 327.712 107.737 327.791Z" fill="#43588E"/>
<path d="M93.1299 345.704C97.1568 349.009 100.879 352.923 103.835 357.22C105.245 359.273 106.553 361.439 107.737 363.627C109.023 366.019 109.881 368.546 110.885 371.061C110.964 371.253 111.313 371.253 111.279 371.005C110.715 365.692 107.354 361.146 104.669 356.724C103.271 354.434 101.533 352.584 99.661 350.667C97.7321 348.693 95.7581 346.82 93.5021 345.23C93.2201 345.038 92.8592 345.478 93.1299 345.704Z" fill="#43588E"/>
<path d="M125.222 339.443C123.281 340.548 123.214 343.605 123.18 345.568C123.112 349.335 124.037 352.866 122.39 356.453C120.901 359.69 118.521 362.398 116.649 365.398C114.9 368.218 113.163 371.816 113.208 375.2C113.208 375.392 113.513 375.505 113.603 375.302C114.314 373.768 114.562 372.019 115.07 370.406C115.634 368.59 116.434 366.943 117.461 365.353C119.266 362.556 121.477 360.018 122.943 357.017C124.488 353.847 124.263 350.712 124.161 347.282C124.094 345.094 123.879 341.575 125.639 339.95C125.898 339.702 125.549 339.274 125.222 339.443Z" fill="#43588E"/>
<path d="M112.238 375.55C104.421 375.437 89.5205 375.358 89.5205 375.358L93.2091 402.724C94.0438 408.883 99.289 413.474 105.504 413.474H111.923H112.543H118.961C125.177 413.474 130.433 408.883 131.257 402.724L134.945 375.358C134.956 375.358 120.067 375.449 112.238 375.55Z" fill="white"/>
<path d="M490.242 325.264L445.63 413.631L315.56 414.568L355.694 324.012L490.242 325.264Z" fill="#F6F7FA"/>
<path d="M229.234 414.014L229.257 406.942H313.462L352.198 321.992H486.858L490.242 325.263H358.695L318.437 413.947C318.437 413.947 229.234 413.778 229.234 414.014Z" fill="#D9DEE8"/>
<path d="M422.698 374.027C421.231 378.438 413.256 381.844 404.887 381.63C396.517 381.416 390.922 377.682 392.4 373.272C393.877 368.861 401.841 365.454 410.211 365.669C418.569 365.872 424.164 369.617 422.698 374.027Z" fill="#D9DEE8"/>
<path d="M318.437 414.511C318.358 414.511 318.279 414.5 318.2 414.466C317.918 414.342 317.794 414.003 317.918 413.721L358.323 324.711H490.231C490.547 324.711 490.795 324.959 490.795 325.275C490.795 325.591 490.547 325.839 490.231 325.839H359.045L318.933 414.195C318.854 414.387 318.651 414.511 318.437 414.511Z" fill="white"/>
<path d="M223.369 420.715H68.6411V455.017H223.369V420.715Z" fill="#596B9B"/>
<path d="M500.88 420.715H222.489V455.017H500.88V420.715Z" fill="#7A89AF"/>
<path d="M223.369 420.715H222.489H68.6411V427.009H222.489H223.369H500.879V420.715H223.369Z" fill="#BDC4D7"/>
<path d="M230.137 413.947H61.1738V422.351H230.137V413.947Z" fill="#6F7FA9"/>
<path d="M507.648 413.947H229.257V422.351H507.648V413.947Z" fill="#9CA6C3"/>
<path d="M184.306 233.952H129.689C126.305 233.952 123.563 231.211 123.563 227.827V200.564C123.563 197.18 126.305 194.438 129.689 194.438H184.306C187.69 194.438 190.431 197.18 190.431 200.564V227.827C190.42 231.211 187.69 233.952 184.306 233.952Z" fill="white"/>
<path d="M205.998 214.19L185.479 205.538V222.853L205.998 214.19Z" fill="white"/>
<path d="M144.037 217.969C146.124 217.969 147.815 216.277 147.815 214.19C147.815 212.103 146.124 210.411 144.037 210.411C141.95 210.411 140.258 212.103 140.258 214.19C140.258 216.277 141.95 217.969 144.037 217.969Z" fill="#223A7A"/>
<path d="M156.998 217.969C159.085 217.969 160.776 216.277 160.776 214.19C160.776 212.103 159.085 210.411 156.998 210.411C154.911 210.411 153.219 212.103 153.219 214.19C153.219 216.277 154.911 217.969 156.998 217.969Z" fill="#223A7A"/>
<path d="M169.947 217.969C172.034 217.969 173.726 216.277 173.726 214.19C173.726 212.103 172.034 210.411 169.947 210.411C167.86 210.411 166.168 212.103 166.168 214.19C166.168 216.277 167.86 217.969 169.947 217.969Z" fill="#223A7A"/>
<path d="M462.392 110.549H336.282C328.183 110.549 321.618 117.114 321.618 125.213V185.031C321.618 193.13 328.183 199.695 336.282 199.695H347.584C347.9 205.12 347.122 213.186 342.598 223.495C357.172 216.773 365.553 206.688 369.941 199.695H462.392C470.491 199.695 477.056 193.13 477.056 185.031V125.213C477.056 117.114 470.491 110.549 462.392 110.549Z" fill="#60A8FF"/>
<path d="M408.598 139.064H346.05C344.336 139.064 342.937 137.666 342.937 135.951C342.937 134.237 344.336 132.838 346.05 132.838H408.598C410.312 132.838 411.711 134.237 411.711 135.951C411.711 137.666 410.312 139.064 408.598 139.064Z" fill="white"/>
<path d="M453.447 157.192H344.843C343.794 157.192 342.937 156.334 342.937 155.285C342.937 154.236 343.794 153.379 344.843 153.379H453.447C454.496 153.379 455.354 154.236 455.354 155.285C455.354 156.334 454.496 157.192 453.447 157.192Z" fill="#D2E6FF"/>
<path d="M453.447 167.773H344.843C343.794 167.773 342.937 166.915 342.937 165.866C342.937 164.817 343.794 163.96 344.843 163.96H453.447C454.496 163.96 455.354 164.817 455.354 165.866C455.354 166.915 454.496 167.773 453.447 167.773Z" fill="#D2E6FF"/>
<path d="M429.759 179.052H344.855C343.806 179.052 342.948 178.195 342.948 177.146C342.948 176.097 343.806 175.239 344.855 175.239H429.759C430.808 175.239 431.665 176.097 431.665 177.146C431.665 178.195 430.808 179.052 429.759 179.052Z" fill="#D2E6FF"/>
<path d="M452.589 139.064H422.754C421.039 139.064 419.641 137.666 419.641 135.951C419.641 134.237 421.039 132.838 422.754 132.838H452.589C454.304 132.838 455.703 134.237 455.703 135.951C455.703 137.666 454.304 139.064 452.589 139.064Z" fill="white"/>
<path d="M377.386 276.636H343.512C342.271 276.636 341.256 275.621 341.256 274.38V251.234C341.256 249.993 342.271 248.978 343.512 248.978H377.386C378.627 248.978 379.642 249.993 379.642 251.234V274.38C379.642 275.632 378.638 276.636 377.386 276.636Z" fill="white"/>
<path d="M360.68 266.946C360.488 266.946 360.297 266.879 360.139 266.755L341.696 251.527C341.335 251.233 341.29 250.692 341.583 250.331C341.888 249.97 342.418 249.925 342.779 250.218L360.669 264.995L378.096 249.835C378.446 249.53 378.988 249.564 379.292 249.914C379.597 250.263 379.563 250.805 379.213 251.109L361.244 266.743C361.086 266.879 360.883 266.946 360.68 266.946Z" fill="#6F7FA9"/>
<path d="M342.249 276.005C342.034 276.005 341.831 275.926 341.662 275.768C341.324 275.441 341.312 274.91 341.628 274.572L354.521 261.014C354.837 260.675 355.378 260.664 355.717 260.98C356.055 261.307 356.067 261.837 355.751 262.175L342.858 275.734C342.7 275.926 342.474 276.005 342.249 276.005Z" fill="#6F7FA9"/>
<path d="M378.66 275.507C378.446 275.507 378.232 275.428 378.062 275.259L365.215 262.378C364.887 262.05 364.887 261.509 365.215 261.182C365.542 260.855 366.083 260.855 366.41 261.182L379.258 274.064C379.585 274.391 379.585 274.932 379.258 275.259C379.089 275.428 378.875 275.507 378.66 275.507Z" fill="#6F7FA9"/>
<path d="M381.401 259.445C387.65 259.445 392.715 254.38 392.715 248.131C392.715 241.883 387.65 236.817 381.401 236.817C375.153 236.817 370.087 241.883 370.087 248.131C370.087 254.38 375.153 259.445 381.401 259.445Z" fill="#FF5F42"/>
<path d="M378.083 247.109L378.059 246.833C378.363 246.969 378.627 247.145 378.851 247.361C379.075 247.577 379.247 247.813 379.367 248.069C379.487 248.325 379.547 248.589 379.547 248.861C379.547 249.317 379.419 249.737 379.163 250.121C378.915 250.497 378.579 250.801 378.155 251.033C377.731 251.257 377.259 251.369 376.739 251.369C376.219 251.369 375.747 251.257 375.323 251.033C374.899 250.801 374.559 250.497 374.303 250.121C374.055 249.737 373.931 249.317 373.931 248.861C373.931 248.493 374.007 248.177 374.159 247.913C374.319 247.641 374.515 247.413 374.747 247.229C374.987 247.045 375.223 246.893 375.455 246.773L375.359 247.109C375.159 247.029 374.963 246.917 374.771 246.773C374.587 246.621 374.435 246.429 374.315 246.197C374.195 245.965 374.135 245.693 374.135 245.381C374.135 244.933 374.251 244.529 374.483 244.169C374.715 243.801 375.027 243.509 375.419 243.293C375.819 243.077 376.259 242.969 376.739 242.969C377.227 242.969 377.663 243.077 378.047 243.293C378.439 243.509 378.751 243.801 378.983 244.169C379.215 244.529 379.331 244.933 379.331 245.381C379.331 245.725 379.263 246.013 379.127 246.245C378.991 246.477 378.827 246.661 378.635 246.797C378.443 246.933 378.259 247.037 378.083 247.109ZM375.575 245.405C375.575 245.621 375.623 245.813 375.719 245.981C375.823 246.149 375.963 246.285 376.139 246.389C376.315 246.485 376.515 246.533 376.739 246.533C376.963 246.533 377.159 246.485 377.327 246.389C377.503 246.285 377.639 246.149 377.735 245.981C377.839 245.813 377.891 245.621 377.891 245.405C377.891 245.085 377.779 244.821 377.555 244.613C377.339 244.397 377.067 244.289 376.739 244.289C376.403 244.289 376.123 244.397 375.899 244.613C375.683 244.821 375.575 245.085 375.575 245.405ZM376.739 250.049C377.123 250.049 377.447 249.933 377.711 249.701C377.975 249.461 378.107 249.173 378.107 248.837C378.107 248.605 378.047 248.397 377.927 248.213C377.807 248.029 377.643 247.885 377.435 247.781C377.227 247.669 376.995 247.613 376.739 247.613C376.483 247.613 376.251 247.669 376.043 247.781C375.835 247.885 375.671 248.029 375.551 248.213C375.431 248.397 375.371 248.605 375.371 248.837C375.371 249.173 375.503 249.461 375.767 249.701C376.031 249.933 376.355 250.049 376.739 250.049ZM382.917 251.489C382.621 251.489 382.305 251.445 381.969 251.357C381.633 251.261 381.357 251.125 381.141 250.949C381.037 250.861 380.953 250.749 380.889 250.613C380.833 250.469 380.805 250.333 380.805 250.205C380.805 250.069 380.861 249.941 380.973 249.821C381.093 249.701 381.261 249.641 381.477 249.641C381.621 249.641 381.801 249.717 382.017 249.869C382.145 249.949 382.285 250.021 382.437 250.085C382.589 250.149 382.745 250.181 382.905 250.181C383.289 250.181 383.621 250.113 383.901 249.977C384.181 249.833 384.397 249.637 384.549 249.389C384.701 249.141 384.777 248.849 384.777 248.513C384.777 248.209 384.705 247.949 384.561 247.733C384.425 247.517 384.241 247.349 384.009 247.229C383.785 247.109 383.541 247.049 383.277 247.049C383.029 247.049 382.813 247.089 382.629 247.169C382.445 247.249 382.277 247.333 382.125 247.421C381.973 247.501 381.821 247.541 381.669 247.541C381.405 247.541 381.209 247.485 381.081 247.373C380.953 247.253 380.873 247.113 380.841 246.953C380.809 246.793 380.801 246.649 380.817 246.521L381.189 243.605C381.221 243.437 381.301 243.301 381.429 243.197C381.565 243.085 381.725 243.029 381.909 243.029H385.377C385.569 243.029 385.729 243.093 385.857 243.221C385.985 243.349 386.049 243.509 386.049 243.701C386.049 243.885 385.985 244.041 385.857 244.169C385.729 244.289 385.569 244.349 385.377 244.349H382.281L382.413 244.241L382.089 246.677L381.933 246.221C381.981 246.141 382.085 246.065 382.245 245.993C382.405 245.921 382.589 245.861 382.797 245.813C383.005 245.757 383.209 245.729 383.409 245.729C383.945 245.729 384.425 245.853 384.849 246.101C385.273 246.341 385.605 246.673 385.845 247.097C386.093 247.513 386.217 247.985 386.217 248.513C386.217 249.113 386.081 249.637 385.809 250.085C385.537 250.533 385.153 250.881 384.657 251.129C384.169 251.369 383.589 251.489 382.917 251.489Z" fill="white"/>
<path d="M495.093 243.958H428.97C426.477 243.958 424.458 241.938 424.458 239.446V229.102C424.458 226.609 426.477 224.59 428.97 224.59H495.093C497.586 224.59 499.605 226.609 499.605 229.102V239.446C499.605 241.938 497.586 243.958 495.093 243.958Z" fill="#223A7A"/>
<path d="M433.741 239.356C433.448 239.356 433.211 239.254 433.03 239.04C432.85 238.825 432.771 238.566 432.793 238.25L433.075 235.746C433.098 235.678 433.087 235.644 433.042 235.622C432.996 235.599 432.951 235.611 432.884 235.656L430.819 237.145C430.56 237.336 430.301 237.404 430.03 237.348C429.759 237.291 429.533 237.133 429.364 236.851C429.173 236.513 429.139 236.22 429.251 235.96C429.364 235.701 429.567 235.532 429.838 235.419L432.15 234.37C432.218 234.347 432.241 234.313 432.241 234.28C432.241 234.234 432.207 234.201 432.15 234.189L429.838 233.14C429.545 233.016 429.353 232.813 429.263 232.542C429.184 232.272 429.206 231.99 429.353 231.719C429.522 231.448 429.748 231.279 430.018 231.223C430.289 231.166 430.56 231.223 430.808 231.392L432.872 232.915C432.94 232.96 432.985 232.971 433.03 232.949C433.075 232.926 433.087 232.881 433.064 232.824L432.782 230.32C432.76 230.004 432.85 229.734 433.042 229.531C433.233 229.316 433.481 229.215 433.809 229.215C434.102 229.215 434.35 229.316 434.542 229.531C434.734 229.745 434.801 230.004 434.767 230.32L434.485 232.824C434.463 232.892 434.474 232.926 434.519 232.949C434.564 232.971 434.609 232.96 434.677 232.915L436.741 231.426C436.99 231.234 437.26 231.166 437.554 231.223C437.836 231.279 438.061 231.437 438.208 231.719C438.4 232.057 438.433 232.351 438.321 232.61C438.208 232.858 438.005 233.039 437.734 233.152L435.422 234.201C435.354 234.223 435.331 234.257 435.331 234.291C435.331 234.336 435.365 234.37 435.422 234.381L437.734 235.43C438.027 235.554 438.23 235.757 438.321 236.028C438.411 236.299 438.377 236.581 438.208 236.851C438.061 237.122 437.847 237.291 437.554 237.348C437.272 237.404 437.001 237.348 436.741 237.179L434.677 235.656C434.609 235.611 434.564 235.599 434.519 235.622C434.474 235.644 434.463 235.69 434.485 235.746L434.767 238.25C434.813 238.566 434.734 238.837 434.53 239.04C434.316 239.254 434.057 239.356 433.741 239.356Z" fill="white"/>
<path d="M447.412 239.356C447.119 239.356 446.882 239.254 446.702 239.04C446.521 238.825 446.442 238.566 446.465 238.25L446.747 235.746C446.769 235.678 446.758 235.644 446.713 235.622C446.668 235.599 446.623 235.611 446.555 235.656L444.491 237.145C444.231 237.336 443.972 237.404 443.701 237.348C443.43 237.291 443.205 237.133 443.036 236.851C442.844 236.513 442.81 236.22 442.923 235.96C443.036 235.701 443.239 235.532 443.509 235.419L445.822 234.37C445.889 234.347 445.912 234.313 445.912 234.28C445.912 234.234 445.878 234.201 445.822 234.189L443.509 233.14C443.216 233.016 443.024 232.813 442.934 232.542C442.855 232.272 442.878 231.99 443.024 231.719C443.194 231.448 443.419 231.279 443.69 231.223C443.961 231.166 444.231 231.223 444.479 231.392L446.544 232.915C446.611 232.96 446.657 232.971 446.702 232.949C446.747 232.926 446.758 232.881 446.735 232.824L446.453 230.32C446.431 230.004 446.521 229.734 446.713 229.531C446.905 229.316 447.153 229.215 447.48 229.215C447.773 229.215 448.021 229.316 448.213 229.531C448.405 229.745 448.473 230.004 448.439 230.32L448.157 232.824C448.134 232.892 448.145 232.926 448.191 232.949C448.236 232.971 448.281 232.96 448.349 232.915L450.413 231.426C450.661 231.234 450.932 231.166 451.225 231.223C451.507 231.279 451.721 231.437 451.879 231.719C452.071 232.057 452.105 232.351 451.992 232.61C451.879 232.858 451.676 233.039 451.405 233.152L449.093 234.201C449.025 234.223 449.003 234.257 449.003 234.291C449.003 234.336 449.037 234.37 449.093 234.381L451.405 235.43C451.699 235.554 451.902 235.757 451.992 236.028C452.082 236.299 452.048 236.581 451.879 236.851C451.733 237.122 451.518 237.291 451.225 237.348C450.943 237.404 450.672 237.348 450.413 237.179L448.349 235.656C448.281 235.611 448.236 235.599 448.191 235.622C448.145 235.644 448.134 235.69 448.157 235.746L448.439 238.25C448.484 238.566 448.405 238.837 448.202 239.04C447.988 239.254 447.728 239.356 447.412 239.356Z" fill="white"/>
<path d="M461.095 239.356C460.802 239.356 460.565 239.254 460.384 239.04C460.204 238.825 460.125 238.566 460.147 238.25L460.429 235.746C460.452 235.678 460.441 235.644 460.396 235.622C460.35 235.599 460.305 235.611 460.238 235.656L458.173 237.145C457.914 237.336 457.655 237.404 457.384 237.348C457.113 237.291 456.887 237.133 456.718 236.851C456.527 236.513 456.493 236.22 456.605 235.96C456.718 235.701 456.921 235.532 457.192 235.419L459.504 234.37C459.572 234.347 459.595 234.313 459.595 234.28C459.595 234.234 459.561 234.201 459.504 234.189L457.192 233.14C456.899 233.016 456.707 232.813 456.617 232.542C456.538 232.272 456.56 231.99 456.707 231.719C456.876 231.448 457.102 231.279 457.372 231.223C457.643 231.166 457.914 231.223 458.162 231.392L460.226 232.915C460.294 232.96 460.339 232.971 460.384 232.949C460.429 232.926 460.441 232.881 460.418 232.824L460.136 230.32C460.114 230.004 460.204 229.734 460.396 229.531C460.587 229.316 460.835 229.215 461.163 229.215C461.456 229.215 461.704 229.316 461.896 229.531C462.088 229.745 462.155 230.004 462.121 230.32L461.839 232.824C461.817 232.892 461.828 232.926 461.873 232.949C461.918 232.971 461.963 232.96 462.031 232.915L464.095 231.426C464.344 231.234 464.614 231.166 464.908 231.223C465.19 231.279 465.415 231.437 465.562 231.719C465.754 232.057 465.787 232.351 465.675 232.61C465.562 232.858 465.359 233.039 465.088 233.152L462.776 234.201C462.708 234.223 462.685 234.257 462.685 234.291C462.685 234.336 462.719 234.37 462.776 234.381L465.088 235.43C465.381 235.554 465.584 235.757 465.675 236.028C465.765 236.299 465.731 236.581 465.562 236.851C465.415 237.122 465.201 237.291 464.908 237.348C464.626 237.404 464.355 237.348 464.095 237.179L462.031 235.656C461.963 235.611 461.918 235.599 461.873 235.622C461.828 235.644 461.817 235.69 461.839 235.746L462.121 238.25C462.167 238.566 462.088 238.837 461.884 239.04C461.67 239.254 461.411 239.356 461.095 239.356Z" fill="white"/>
<path d="M474.766 239.356C474.473 239.356 474.236 239.254 474.056 239.04C473.875 238.825 473.796 238.566 473.819 238.25L474.101 235.746C474.123 235.678 474.112 235.644 474.067 235.622C474.022 235.599 473.977 235.611 473.909 235.656L471.845 237.145C471.585 237.336 471.326 237.404 471.055 237.348C470.784 237.291 470.559 237.133 470.39 236.851C470.198 236.513 470.164 236.22 470.277 235.96C470.39 235.701 470.593 235.532 470.863 235.419L473.176 234.37C473.243 234.347 473.266 234.313 473.266 234.28C473.266 234.234 473.232 234.201 473.176 234.189L470.863 233.14C470.57 233.016 470.378 232.813 470.288 232.542C470.209 232.272 470.232 231.99 470.378 231.719C470.548 231.448 470.773 231.279 471.044 231.223C471.315 231.166 471.585 231.223 471.833 231.392L473.898 232.915C473.965 232.96 474.011 232.971 474.056 232.949C474.101 232.926 474.112 232.881 474.089 232.824L473.807 230.32C473.785 230.004 473.875 229.734 474.067 229.531C474.259 229.316 474.507 229.215 474.834 229.215C475.127 229.215 475.375 229.316 475.567 229.531C475.759 229.745 475.827 230.004 475.793 230.32L475.511 232.824C475.488 232.892 475.5 232.926 475.545 232.949C475.59 232.971 475.635 232.96 475.703 232.915L477.767 231.426C478.015 231.234 478.286 231.166 478.579 231.223C478.861 231.279 479.087 231.437 479.233 231.719C479.425 232.057 479.459 232.351 479.346 232.61C479.233 232.858 479.03 233.039 478.759 233.152L476.447 234.201C476.379 234.223 476.357 234.257 476.357 234.291C476.357 234.336 476.391 234.37 476.447 234.381L478.759 235.43C479.053 235.554 479.256 235.757 479.346 236.028C479.436 236.299 479.402 236.581 479.233 236.851C479.087 237.122 478.872 237.291 478.579 237.348C478.297 237.404 478.026 237.348 477.767 237.179L475.703 235.656C475.635 235.611 475.59 235.599 475.545 235.622C475.5 235.644 475.488 235.69 475.511 235.746L475.793 238.25C475.838 238.566 475.759 238.837 475.556 239.04C475.342 239.254 475.082 239.356 474.766 239.356Z" fill="white"/>
<path d="M488.449 239.356C488.156 239.356 487.919 239.254 487.738 239.04C487.558 238.825 487.479 238.566 487.501 238.25L487.783 235.746C487.806 235.678 487.795 235.644 487.75 235.622C487.704 235.599 487.659 235.611 487.592 235.656L485.527 237.145C485.268 237.336 485.009 237.404 484.738 237.348C484.467 237.291 484.241 237.133 484.072 236.851C483.881 236.513 483.847 236.22 483.959 235.96C484.072 235.701 484.275 235.532 484.546 235.419L486.858 234.37C486.926 234.347 486.949 234.313 486.949 234.28C486.949 234.234 486.915 234.201 486.858 234.189L484.546 233.14C484.253 233.016 484.061 232.813 483.971 232.542C483.892 232.272 483.914 231.99 484.061 231.719C484.23 231.448 484.456 231.279 484.726 231.223C484.997 231.166 485.268 231.223 485.516 231.392L487.58 232.915C487.648 232.96 487.693 232.971 487.738 232.949C487.783 232.926 487.795 232.881 487.772 232.824L487.49 230.32C487.468 230.004 487.558 229.734 487.75 229.531C487.941 229.316 488.189 229.215 488.517 229.215C488.81 229.215 489.058 229.316 489.25 229.531C489.442 229.745 489.509 230.004 489.475 230.32L489.193 232.824C489.171 232.892 489.182 232.926 489.227 232.949C489.272 232.971 489.317 232.96 489.385 232.915L491.449 231.426C491.698 231.234 491.968 231.166 492.262 231.223C492.544 231.279 492.769 231.437 492.916 231.719C493.108 232.057 493.141 232.351 493.029 232.61C492.916 232.858 492.713 233.039 492.442 233.152L490.13 234.201C490.062 234.223 490.039 234.257 490.039 234.291C490.039 234.336 490.073 234.37 490.13 234.381L492.442 235.43C492.735 235.554 492.938 235.757 493.029 236.028C493.119 236.299 493.085 236.581 492.916 236.851C492.769 237.122 492.555 237.291 492.262 237.348C491.98 237.404 491.709 237.348 491.449 237.179L489.385 235.656C489.317 235.611 489.272 235.599 489.227 235.622C489.182 235.644 489.171 235.69 489.193 235.746L489.475 238.25C489.521 238.566 489.442 238.837 489.238 239.04C489.024 239.254 488.765 239.356 488.449 239.356Z" fill="#67ACFF"/>
</svg>
